<?xml version="1.0" standalone="no"?>
<!DOCTYPE svg PUBLIC "-//W3C//DTD SVG 20010904//EN"
 "http://www.w3.org/TR/2001/REC-SVG-20010904/DTD/svg10.dtd">
<svg version="1.0" xmlns="http://www.w3.org/2000/svg"
 width="890.000000pt" height="155.000000pt" viewBox="0 0 890.000000 155.000000"
 preserveAspectRatio="xMidYMid meet">
<g transform="translate(0.000000,200.000000) scale(0.100000,-0.100000)"
fill="#FFFFFF" stroke="none">
<path d="M252 1873 c-12 -71 -22 -134 -22 -141 0 -10 15 -12 70 -6 68 6 70 6
70 -16 0 -12 -20 -139 -46 -283 -41 -238 -60 -344 -110 -611 l-17 -89 -72 7
-73 7 -6 -48 c-3 -26 -7 -88 -8 -136 l-3 -88 306 -3 c169 -2 313 0 320 5 13 8
61 254 51 263 -2 3 -35 2 -73 -1 -82 -7 -78 -17 -49 137 11 58 45 247 75 420
31 173 61 342 68 375 l12 60 75 5 74 5 12 71 c7 39 17 88 23 110 6 21 11 49
11 62 l0 22 -333 0 -333 0 -22 -127z"/>
<path d="M2762 1870 c-12 -72 -24 -135 -27 -140 -4 -6 -60 -10 -125 -10 -116
0 -120 -1 -125 -22 -5 -24 -35 -230 -35 -243 0 -4 54 -5 120 -3 138 3 128 14
105 -107 -97 -514 -117 -653 -104 -718 13 -57 54 -109 113 -140 38 -20 59 -22
259 -25 343 -6 413 10 511 119 46 51 86 147 86 205 l0 24 -182 -2 -183 -3 -3
-31 c-2 -23 -9 -34 -25 -38 -33 -9 -205 -7 -211 2 -3 4 0 27 5 50 5 24 32 172
59 329 28 157 53 297 56 310 7 27 2 26 251 23 149 -2 162 0 167 17 4 15 46
240 46 250 0 2 -90 3 -199 3 -110 0 -202 3 -204 8 -3 4 3 52 13 107 11 55 19
115 20 133 l0 32 -183 0 -183 0 -22 -130z"/>
<path d="M7001 1883 c-12 -65 -24 -126 -27 -135 -5 -17 8 -18 184 -18 l189 0
21 113 c12 61 22 122 22 135 l0 22 -184 0 -184 0 -21 -117z"/>
<path d="M1360 1720 c-57 -5 -99 -14 -128 -29 -63 -32 -128 -105 -152 -169
-12 -30 -59 -269 -105 -531 -47 -262 -88 -485 -91 -497 -5 -19 0 -22 48 -27
29 -4 112 -7 184 -7 l131 0 22 117 c23 126 44 248 112 628 23 132 44 242 46
245 2 2 122 3 266 2 206 -1 262 -4 260 -14 -19 -121 -156 -883 -163 -908 -21
-75 -30 -71 163 -69 94 1 179 5 188 10 10 5 19 27 23 56 4 26 41 237 83 468
89 492 95 569 50 628 -15 20 -44 49 -64 64 -34 26 -44 28 -177 35 -176 8 -583
7 -696 -2z"/>
<path d="M4100 1720 c-93 -7 -123 -20 -188 -75 -84 -73 -105 -128 -152 -405
-16 -96 -43 -249 -60 -340 -39 -214 -39 -271 -1 -332 66 -104 103 -111 623
-106 365 3 374 4 423 26 55 25 115 78 149 132 27 41 56 124 56 157 l0 23 -182
-2 -183 -3 -5 -28 -5 -28 -265 -2 -265 -2 3 46 c1 25 8 66 15 92 l12 48 355 2
355 2 49 25 c60 31 128 95 154 146 23 45 70 266 79 371 4 56 2 83 -11 117 -21
56 -92 123 -138 130 -56 8 -728 14 -818 6z m600 -270 c0 -2 -9 -47 -19 -100
-11 -52 -23 -112 -26 -132 l-6 -38 -259 0 c-252 0 -260 1 -260 20 0 35 32 225
41 242 8 14 36 16 269 15 143 -1 260 -4 260 -7z"/>
<path d="M5600 1721 c-114 -9 -180 -44 -240 -127 -39 -55 -57 -104 -81 -229
-27 -136 -27 -240 0 -292 25 -50 70 -89 119 -103 22 -6 174 -10 376 -10 l338
0 -6 -22 c-3 -13 -11 -59 -17 -103 -7 -44 -17 -84 -24 -90 -7 -6 -111 -10
-266 -10 l-254 0 3 43 2 42 -127 1 c-71 0 -153 2 -183 2 l-54 2 -8 -40 c-13
-73 -8 -158 11 -200 21 -46 79 -101 119 -112 15 -5 221 -8 457 -8 420 0 431 1
477 22 62 28 134 97 163 153 40 81 90 356 74 412 -13 49 -60 111 -106 139 -40
25 -64 26 -743 29 -3 0 3 52 15 115 l20 115 35 0 c19 1 138 2 264 3 l228 2 -6
-52 c-3 -28 -9 -58 -12 -67 -5 -14 14 -16 180 -16 210 0 183 -12 206 90 12 58
13 142 0 174 -15 40 -88 114 -123 125 -39 11 -718 21 -837 12z"/>
<path d="M7885 1721 c-96 -8 -145 -30 -205 -91 -63 -62 -86 -117 -115 -275
-28 -150 -30 -192 -14 -248 14 -52 84 -122 134 -136 25 -7 162 -11 373 -11
259 0 332 -3 332 -12 -1 -33 -28 -199 -33 -204 -3 -3 -123 -7 -267 -10 l-262
-4 4 45 3 45 -115 1 c-63 0 -143 2 -177 5 -56 5 -63 4 -74 -17 -6 -13 -12 -61
-13 -108 -1 -94 9 -124 60 -175 62 -61 53 -60 484 -64 402 -4 475 0 545 34 57
27 122 91 149 147 32 66 79 314 74 384 -5 62 -44 123 -102 162 l-40 26 -354 2
c-196 2 -357 4 -358 6 -4 4 34 219 40 224 2 2 121 5 265 6 l262 2 -7 -50 c-3
-27 -10 -58 -16 -67 -8 -17 3 -18 180 -18 l189 0 16 75 c22 97 21 150 -2 200
-22 47 -74 99 -116 116 -35 13 -710 22 -840 10z"/>
<path d="M6828 1634 c-5 -4 -8 -18 -8 -31 0 -13 -9 -69 -21 -125 -11 -55 -17
-104 -12 -108 4 -4 32 -5 61 -1 29 4 55 4 57 0 5 -7 -10 -102 -71 -435 -18
-106 -34 -195 -34 -199 0 -4 -31 -5 -70 -1 l-69 6 -6 -37 c-3 -21 -12 -74 -20
-118 -8 -44 -15 -90 -15 -102 l0 -23 315 0 315 0 5 23 c16 67 45 222 45 238 0
16 -6 18 -65 12 -59 -5 -65 -4 -65 13 0 10 14 93 30 184 56 304 80 455 80 506
0 62 -40 130 -100 170 -39 26 -48 27 -193 32 -84 2 -155 1 -159 -4z"/>
</g>
</svg>
